<svg id="a0cbbd34-9b02-4475-9723-152ad0878445" xmlns="http://www.w3.org/2000/svg" viewBox="0 0 56 75"><g id="be43a68c-af86-4399-a447-7af78d1d928a" data-name="Destination"><path id="e9c9a633-b849-4b2b-a6ad-b808ad3eda41" data-name="Stroke-1" d="M52.43,36.44a25.39,25.39,0,0,1-3.81,7.22l-1,1.32h0L28.38,71v0l0,0L8.05,43.56l0,0,0-.08a25.36,25.36,0,1,1,44.46-7Z" style="fill:#fff;stroke:#3cb44a;stroke-width:2px"/><circle cx="28.33" cy="28.75" r="22.5" style="fill:#fff;stroke:#3cb44a;stroke-width:2px"/><path id="f457daff-2d94-43ef-b960-8dd4bb93e7d8" data-name="Fill-3-Copy" d="M31,11.43l-.15,0C26,18.93,21.23,26.47,16.37,34.12l9.33.25c-.12,4.59-.23,9.14-.36,13.68.06,0,.09,0,.14.05C30.27,40.56,35.06,33,39.89,25.4l-9.26-.24c.1-4.61.23-9.17.34-13.73" style="fill:#3cb44a"/></g></svg>
