<svg id="e61f2761-bdcc-4995-b59b-6c49e839c689" xmlns="http://www.w3.org/2000/svg" viewBox="0 0 39 75"><g id="b288d041-284b-4b33-a5c0-57b76b9d609c" data-name="Destination"><ellipse cx="19.35" cy="56.58" rx="16.5" ry="5.5" style="fill:#fff;stroke:#3cb44a;stroke-width:2px"/><path id="beeadd30-e3b5-47aa-8441-2cc417106527" data-name="Stroke-1" d="M35.29,34.05a16.48,16.48,0,0,1-2.52,4.78l-.66.87h0L19.38,56.91h0L5.92,38.76v0l0-.05a16.64,16.64,0,0,1-3.29-10,16.79,16.79,0,0,1,33.58,0,16.6,16.6,0,0,1-.87,5.34Z" style="fill:#fff;stroke:#3cb44a;stroke-width:2px"/><path id="e9cbe932-3e9f-4e36-ae1b-194b40b39014" data-name="Fill-3-Copy" d="M21.09,17.5l-.1,0L11.43,32.52l6.17.16c-.08,3-.15,6-.23,9l.08,0c3.18-5,6.35-10,9.55-15l-6.13-.16c.06-3.05.15-6.07.22-9.09" style="fill:#3cb44a"/></g></svg>
